<svg version="1.0" xmlns="http://www.w3.org/2000/svg" width="461.8066pt" height="133.0008pt" viewBox="44 185 461.8066 133.0008" preserveAspectRatio="xMidYMid meet">
  <g transform="translate(0.000000,488.000000) scale(0.100000,-0.100000)" fill="#000000" stroke="none">
    <path d="M 1330 2688 C 1330 2480 1326 2330 1319 2307 C 1307 2261 1257 2226 1185 2212 C 1158 2207 979 2204 788 2205 L 440 2206 L 440 2020 L 793 2019 C 1221 2017 1228 2017 1313 2035 C 1405 2054 1464 2085 1515 2143 C 1584 2219 1590 2261 1590 2679 L 1590 3030 L 1460 3030 L 1330 3030 L 1330 2688 Z"></path>
    <path d="M 1860 3030 L 1860 2020 L 2125 2020 C 2125 2020 2115 2730 2128 2730 C 2134 2730 2605 2181 2605 2181 L 2718 2180 L 3215 2730 L 3220 2015 L 3480 2021 L 3480 3030 L 3185 3030 L 2671 2446 L 2168 3030 L 1860 3030 Z"></path>
    <path d="M 3992 3019 C 3802 2991 3710 2884 3722 2706 C 3729 2607 3753 2556 3812 2509 C 3899 2441 3920 2437 4325 2430 C 4696 2424 4719 2421 4760 2380 C 4791 2349 4788 2281 4753 2248 C 4707 2205 4667 2200 4330 2200 C 4062 2200 3997 2203 3895 2220 C 3829 2231 3766 2242 3755 2245 C 3736 2251 3735 2247 3738 2152 L 3741 2053 C 3742.381 2043.458 4620.643 2007.008 4718 2020 C 4842.978 2036.678 4904.011 2062.983 4960 2119 C 5057.976 2217.024 5068 2385 4984 2495 C 4952 2537 4911 2563 4834 2592 C 4779 2611 4749 2613 4415 2619 C 4012 2626 4045.841 2613.471 3987.354 2651.143 C 3925.596 2690.922 3947.077 2792.151 4010.009 2825.368 C 4078.61 2861.577 4914.034 2836.477 4974.911 2836.677 C 4990.476 2836.728 4975 3030 4975 3030 L 4515 3029 C 4262 3028 4027 3023 3992 3019 Z"></path>
    <path d="M3774 1806 c-72 -109 -71 -106 -40 -106 16 0 32 9 42 25 15 23 23 25
83 25 62 0 69 -2 81 -25 9 -18 22 -25 42 -25 15 0 28 2 28 4 0 2 -28 46 -62
98 -85 125 -94 125 -174 4z m107 17 c7 -16 15 -31 17 -35 2 -5 -17 -8 -42 -8
l-46 0 22 35 c13 19 26 35 29 35 3 0 12 -12 20 -27z"></path>
    <path d="M4110 1798 c0 -98 0 -98 25 -98 22 0 25 4 25 34 l0 33 48 -5 c69 -6
131 13 143 45 12 32 4 60 -22 74 -11 5 -65 11 -119 12 l-100 2 0 -97z m185 32
c0 -24 -3 -25 -67 -28 l-68 -3 0 31 0 31 68 -3 c64 -3 67 -4 67 -28z"></path>
    <path d="M4470 1802 l0 -100 25 2 c21 1 25 6 25 31 l0 30 75 1 c85 1 115 18
115 64 0 49 -30 64 -141 68 l-99 4 0 -100z m180 48 c12 -7 12 -13 4 -27 -8
-13 -27 -19 -73 -21 l-61 -3 0 31 c0 30 0 30 58 30 31 0 64 -5 72 -10z"></path>
    <path d="M4853 1890 c-31 -13 -46 -45 -33 -70 12 -22 27 -27 115 -38 43 -5 60
-11 60 -22 0 -19 -112 -26 -157 -11 -27 10 -29 9 -26 -11 4 -28 59 -41 147
-35 75 6 108 29 97 70 -7 30 -49 47 -112 47 -53 0 -74 8 -74 27 0 12 15 14 85
12 73 -4 85 -2 85 12 0 10 -12 19 -31 23 -44 9 -130 6 -156 -4z"></path>
  </g>
</svg>
